# xmcd CD database file
#
# Track frame offsets:
#	150
#	10860
#	27280
#	40637
#	56915
#	70770
#	80867
#	96040
#	108980
#	128595
#	149330
#	169140
#	184030
#	194110
#	207365
#
# Disc length: 2904 seconds
#
# Revision: 0
# Processed by: cddbd v1.5.2PL0 Copyright (c) Steve Scherf et al.
# Submitted via: ACXtractor (MTCDDB.DLL V2003.12.21)
#
DISCID=d40b560f
DTITLE=Reg Lindsay - Reasons to Rise
DYEAR=1998
DGENRE=Country
TTITLE0=Forget the Gate
TTITLE1=The Fire's Still Burning
TTITLE2=You Took My Saddle
TTITLE3=It Ain't Gold
TTITLE4=Hanging On
TTITLE5=Love's All this Cowboy Can Give
TTITLE6=Reasons To Rise
TTITLE7=Someone Elses Arms
TTITLE8=He's Almost Home
TTITLE9=Don't Act the Big Star With Me
TTITLE10=Sign of the Times
TTITLE11=You Are My Country
TTITLE12=There Isn't One
TTITLE13=We Don't Live In Happy Valley
TTITLE14=He Hardly Ever Smiled
EXTD=ID3G:   2 YEAR: 1998
EXTT0=
EXTT1=
EXTT2=
EXTT3=
EXTT4=
EXTT5=
EXTT6=
EXTT7=
EXTT8=
EXTT9=
EXTT10=
EXTT11=
EXTT12=
EXTT13=
EXTT14=
PLAYORDER=
